<svg width="30" height="30" viewBox="0 0 30 30" fill="none" xmlns="http://www.w3.org/2000/svg">
<path d="M23.4375 16.875C27.0619 16.875 30 19.8131 30 23.4375C30 27.0619 27.0619 30 23.4375 30C19.8131 30 16.875 27.0619 16.875 23.4375C16.875 19.8131 19.8131 16.875 23.4375 16.875ZM24.1004 27.8504L26.9129 25.0379C27.279 24.6718 27.279 24.0782 26.9129 23.7121C26.5468 23.346 25.9532 23.346 25.5871 23.7121L24.375 24.9242V19.6875C24.375 19.1697 23.9553 18.75 23.4375 18.75C22.9197 18.75 22.5 19.1697 22.5 19.6875V24.9242L21.2879 23.7121C20.9218 23.346 20.3282 23.346 19.9621 23.7121C19.596 24.0782 19.596 24.6718 19.9621 25.0379L22.7746 27.8504C22.9504 28.0262 23.1889 28.125 23.4375 28.125C23.6861 28.125 23.9246 28.0262 24.1004 27.8504Z" fill="black"/>
<path d="M20.625 9.375C20.625 12.4816 18.1066 15 15 15C11.8934 15 9.375 12.4816 9.375 9.375C9.375 6.2684 11.8934 3.75 15 3.75C18.1066 3.75 20.625 6.2684 20.625 9.375ZM15 13.125C17.0711 13.125 18.75 11.4461 18.75 9.375C18.75 7.30393 17.0711 5.625 15 5.625C12.9289 5.625 11.25 7.30393 11.25 9.375C11.25 11.4461 12.9289 13.125 15 13.125Z" fill="black"/>
<path d="M15.4801 26.25C15.2684 25.651 15.1224 25.0209 15.0508 24.3685H5.625C5.62767 23.9057 5.91329 22.5196 7.18518 21.2477C8.40816 20.0247 10.7079 18.75 15 18.75C15.4884 18.75 15.951 18.7665 16.3892 18.7976C16.8114 18.1576 17.3184 17.5785 17.8942 17.0762C17.0195 16.9466 16.0575 16.875 15 16.875C5.625 16.875 3.75 22.5 3.75 24.375C3.75 26.25 5.625 26.25 5.625 26.25H15.4801Z" fill="black"/>
</svg>
